<svg width="16" height="16" viewBox="0 0 16 16" fill="none" xmlns="http://www.w3.org/2000/svg">
<path d="M6.88867 10.8889H13.5553" stroke="white" stroke-width="1.2" stroke-linecap="round" stroke-linejoin="round"/>
<path d="M2.44434 5.11111H9.111" stroke="white" stroke-width="1.2" stroke-linecap="round" stroke-linejoin="round"/>
<path d="M4.66656 13.1111C5.89386 13.1111 6.88878 12.1162 6.88878 10.8889C6.88878 9.66158 5.89386 8.66666 4.66656 8.66666C3.43926 8.66666 2.44434 9.66158 2.44434 10.8889C2.44434 12.1162 3.43926 13.1111 4.66656 13.1111Z" stroke="white" stroke-width="1.2" stroke-linecap="round" stroke-linejoin="round"/>
<path d="M11.3333 7.33333C12.5606 7.33333 13.5555 6.33841 13.5555 5.11111C13.5555 3.88381 12.5606 2.88889 11.3333 2.88889C10.106 2.88889 9.11108 3.88381 9.11108 5.11111C9.11108 6.33841 10.106 7.33333 11.3333 7.33333Z" stroke="white" stroke-width="1.2" stroke-linecap="round" stroke-linejoin="round"/>
</svg>
